<svg width="189" height="169" viewBox="0 0 189 169" fill="none" xmlns="http://www.w3.org/2000/svg">
<path d="M51.5453 64.2815C49.8505 63.8343 48.4418 62.6575 47.7003 61.0692C46.9587 59.4809 46.961 57.6453 47.7065 56.0588L60.7849 28.2255C61.7595 26.1514 63.846 24.8282 66.1377 24.8311C68.4295 24.8339 70.5127 26.1622 71.4822 28.2388L77.2516 40.5965C77.4579 40.5154 77.6708 40.4451 77.89 40.3864C112.125 31.2131 147.315 51.5298 156.488 85.7652C165.662 120.001 145.345 155.19 111.11 164.364C76.8742 173.537 41.6845 153.22 32.5112 118.985C29.5941 108.098 29.6597 97.0976 32.2146 86.8701C33.0052 83.7054 36.2116 81.7808 39.3762 82.5714C42.5409 83.362 44.4655 86.5683 43.675 89.733C41.5936 98.0647 41.5363 107.027 43.9212 115.928C51.406 143.861 80.1185 160.438 108.052 152.954C135.986 145.469 152.563 116.756 145.078 88.8225C137.716 61.3454 109.814 44.8567 82.318 51.4485L88.1392 63.917C89.1086 65.9935 88.7894 68.4435 87.3201 70.2022C85.8508 71.961 83.4967 72.711 81.2808 72.1264L51.5453 64.2815Z" fill="black"/>
</svg>
